<svg width="292" height="85" viewBox="0 0 292 85" fill="none" xmlns="http://www.w3.org/2000/svg">
<g clip-path="url(#clip0_566_515)">
<path d="M116 21.9999V43.9999H123.5H131V46.7999C131 51.6999 132.1 51.9999 149.1 51.9999H164.8L165.4 55.4999C166.1 58.9999 167.5 60.0999 168.3 57.6999C168.6 56.8999 169.3 56.9999 170.9 58.3999C172.9 60.1999 173.2 60.2999 174.7 58.6999C176.3 57.1999 176.2 56.8999 174.4 54.8999C173 53.2999 172.9 52.5999 173.7 52.2999C176.1 51.4999 175 50.0999 171.5 49.3999L168 48.7999V37.0999C168 24.9999 167.4 22.9999 163.8 22.9999C162.2 22.9999 162 21.8999 162 11.4999V-6.86646e-05H139H116V21.9999ZM160 3.99993C160 5.89993 159.3 5.99993 139 5.99993C118.7 5.99993 118 5.89993 118 3.99993C118 2.09993 118.7 1.99993 139 1.99993C159.3 1.99993 160 2.09993 160 3.99993ZM160 15.4999C160 22.7999 159.9 22.9999 157.5 22.9999C155.5 22.9999 155 22.4999 155 20.3999C155 18.9999 154.6 18.0999 154 18.4999C153.4 18.7999 153 19.9999 153 21.0999C153 22.7999 152.2 22.9999 143.6 22.9999C138.4 22.9999 133.5 23.2999 132.6 23.5999C131.4 24.0999 131 25.5999 131 29.9999C131 33.6999 130.5 35.9999 129.7 36.3999C128.8 36.8999 128.8 37.0999 129.8 37.5999C130.4 37.8999 131 38.9999 131 40.0999C131 41.7999 130.2 41.9999 124.5 41.9999H118V24.9999V7.99993H139H160V15.4999ZM166 36.0999C166 44.2999 165.6 47.4999 164.6 48.5999C163.5 49.6999 159.8 49.9999 148.1 49.9999H133V37.4999V24.9999H149.5H166V36.0999ZM170 50.9999C170.8 51.4999 171.1 51.9999 170.6 51.9999C170.1 51.9999 170.5 52.8999 171.5 53.9999C173.9 56.5999 172.6 57.8999 170 55.4999C168.9 54.4999 168 54.0999 168 54.5999C168 55.9999 166 52.6999 166 51.1999C166 49.7999 167.9 49.5999 170 50.9999Z" fill="#8A8A8E"/>
<path d="M150.5 3.99987C150.9 4.59987 151.6 4.79987 152.1 4.49987C153.5 3.59987 153.2 2.99987 151.4 2.99987C150.6 2.99987 150.2 3.49987 150.5 3.99987Z" fill="#8A8A8E"/>
<path d="M155 4C155 4.5 155.5 5 156 5C156.6 5 157 4.5 157 4C157 3.4 156.6 3 156 3C155.5 3 155 3.4 155 4Z" fill="#8A8A8E"/>
<path d="M123 14.1999C123 16.1999 123.1 16.2999 125 14.4999C126.1 13.4999 127 12.4999 127 12.2999C127 12.1999 126.1 11.9999 125 11.9999C123.6 11.9999 123 12.6999 123 14.1999Z" fill="#8A8A8E"/>
<path d="M129 13C129 13.5 130.1 14 131.5 14C132.9 14 134 13.5 134 13C134 12.4 132.9 12 131.5 12C130.1 12 129 12.4 129 13Z" fill="#8A8A8E"/>
<path d="M136.5 13C136.8 13.5 138 14 139 14C140 14 141.2 13.5 141.5 13C141.9 12.4 140.8 12 139 12C137.2 12 136.1 12.4 136.5 13Z" fill="#8A8A8E"/>
<path d="M144.5 13C144.8 13.5 146 14 147.1 14C148.1 14 149 13.5 149 13C149 12.4 147.8 12 146.4 12C145 12 144.1 12.4 144.5 13Z" fill="#8A8A8E"/>
<path d="M152 12.6C152 12.9 152.7 13.8 153.5 14.6C154.8 16 155 15.9 155 14.1C155 12.9 154.4 12 153.5 12C152.7 12 152 12.3 152 12.6Z" fill="#8A8A8E"/>
<path d="M123 21.1C123 22.8 123.4 23.9 124 23.5C124.6 23.2 125 21.8 125 20.4C125 19.1 124.6 18 124 18C123.5 18 123 19.4 123 21.1Z" fill="#8A8A8E"/>
<path d="M123 29C123 30.8 123.4 31.9 124 31.5C124.6 31.2 125 30 125 29C125 28 124.6 26.8 124 26.5C123.4 26.1 123 27.2 123 29Z" fill="#8A8A8E"/>
<path d="M123 36C123 37.4 123.7 38 125.2 38C127.2 38 127.3 37.9 125.5 36C124.5 34.9 123.5 34 123.3 34C123.2 34 123 34.9 123 36Z" fill="#8A8A8E"/>
<path d="M136.4 29.4C135.4 32 136.8 34.2 139.2 33.8C142.5 33.4 142.5 28.6 139.2 28.2C137.9 28 136.7 28.5 136.4 29.4ZM140 31C140 31.5 139.3 32 138.5 32C137.7 32 137 31.5 137 31C137 30.4 137.7 30 138.5 30C139.3 30 140 30.4 140 31Z" fill="#8A8A8E"/>
<path d="M151.1 37.1L148.8 40.2L146.5 38L144.3 35.9L140.1 40.7C137.9 43.3 136 45.8 136 46.2C136 46.7 142.1 47 149.5 47C156.9 47 163 46.7 163 46.4C163 45.4 154.8 34 154 34C153.7 34 152.3 35.4 151.1 37.1ZM157.4 41L160 45H149.4H138.8L141.2 42C143.8 38.6 146.4 38.5 146.8 41.8C147.3 44.8 148.1 44.6 150.9 40.5C152.2 38.6 153.6 37 154 37C154.4 37 155.9 38.8 157.4 41Z" fill="#8A8A8E"/>
</g>
<path d="M4.64258 72.4688V81H3.5293V72.4688H4.64258ZM7.38477 72.4688V73.3945H0.792969V72.4688H7.38477ZM9.125 75.6562V81H8.04102V74.6602H9.0957L9.125 75.6562ZM11.1055 74.625L11.0996 75.6328C11.0098 75.6133 10.9238 75.6016 10.8418 75.5977C10.7637 75.5898 10.6738 75.5859 10.5723 75.5859C10.3223 75.5859 10.1016 75.625 9.91016 75.7031C9.71875 75.7812 9.55664 75.8906 9.42383 76.0312C9.29102 76.1719 9.18555 76.3398 9.10742 76.5352C9.0332 76.7266 8.98438 76.9375 8.96094 77.168L8.65625 77.3438C8.65625 76.9609 8.69336 76.6016 8.76758 76.2656C8.8457 75.9297 8.96484 75.6328 9.125 75.375C9.28516 75.1133 9.48828 74.9102 9.73438 74.7656C9.98438 74.6172 10.2812 74.543 10.625 74.543C10.7031 74.543 10.793 74.5527 10.8945 74.5723C10.9961 74.5879 11.0664 74.6055 11.1055 74.625ZM15.6113 79.916V76.6523C15.6113 76.4023 15.5605 76.1855 15.459 76.002C15.3613 75.8145 15.2129 75.6699 15.0137 75.5684C14.8145 75.4668 14.5684 75.416 14.2754 75.416C14.002 75.416 13.7617 75.4629 13.5547 75.5566C13.3516 75.6504 13.1914 75.7734 13.0742 75.9258C12.9609 76.0781 12.9043 76.2422 12.9043 76.418H11.8203C11.8203 76.1914 11.8789 75.9668 11.9961 75.7441C12.1133 75.5215 12.2812 75.3203 12.5 75.1406C12.7227 74.957 12.9883 74.8125 13.2969 74.707C13.6094 74.5977 13.957 74.543 14.3398 74.543C14.8008 74.543 15.207 74.6211 15.5586 74.7773C15.9141 74.9336 16.1914 75.1699 16.3906 75.4863C16.5938 75.7988 16.6953 76.1914 16.6953 76.6641V79.6172C16.6953 79.8281 16.7129 80.0527 16.748 80.291C16.7871 80.5293 16.8438 80.7344 16.918 80.9062V81H15.7871C15.7324 80.875 15.6895 80.709 15.6582 80.502C15.627 80.291 15.6113 80.0957 15.6113 79.916ZM15.7988 77.1562L15.8105 77.918H14.7148C14.4062 77.918 14.1309 77.9434 13.8887 77.9941C13.6465 78.041 13.4434 78.1133 13.2793 78.2109C13.1152 78.3086 12.9902 78.4316 12.9043 78.5801C12.8184 78.7246 12.7754 78.8945 12.7754 79.0898C12.7754 79.2891 12.8203 79.4707 12.9102 79.6348C13 79.7988 13.1348 79.9297 13.3145 80.0273C13.498 80.1211 13.7227 80.168 13.9883 80.168C14.3203 80.168 14.6133 80.0977 14.8672 79.957C15.1211 79.8164 15.3223 79.6445 15.4707 79.4414C15.623 79.2383 15.7051 79.041 15.7168 78.8496L16.1797 79.3711C16.1523 79.5352 16.0781 79.7168 15.957 79.916C15.8359 80.1152 15.6738 80.3066 15.4707 80.4902C15.2715 80.6699 15.0332 80.8203 14.7559 80.9414C14.4824 81.0586 14.1738 81.1172 13.8301 81.1172C13.4004 81.1172 13.0234 81.0332 12.6992 80.8652C12.3789 80.6973 12.1289 80.4727 11.9492 80.1914C11.7734 79.9062 11.6855 79.5879 11.6855 79.2363C11.6855 78.8965 11.752 78.5977 11.8848 78.3398C12.0176 78.0781 12.209 77.8613 12.459 77.6895C12.709 77.5137 13.0098 77.3809 13.3613 77.291C13.7129 77.2012 14.1055 77.1562 14.5391 77.1562H15.7988ZM22.0918 79.3184C22.0918 79.1621 22.0566 79.0176 21.9863 78.8848C21.9199 78.748 21.7812 78.625 21.5703 78.5156C21.3633 78.4023 21.0508 78.3047 20.6328 78.2227C20.2812 78.1484 19.9629 78.0605 19.6777 77.959C19.3965 77.8574 19.1562 77.7344 18.957 77.5898C18.7617 77.4453 18.6113 77.2754 18.5059 77.0801C18.4004 76.8848 18.3477 76.6562 18.3477 76.3945C18.3477 76.1445 18.4023 75.9082 18.5117 75.6855C18.625 75.4629 18.7832 75.2656 18.9863 75.0938C19.1934 74.9219 19.4414 74.7871 19.7305 74.6895C20.0195 74.5918 20.3418 74.543 20.6973 74.543C21.2051 74.543 21.6387 74.6328 21.998 74.8125C22.3574 74.9922 22.6328 75.2324 22.8242 75.5332C23.0156 75.8301 23.1113 76.1602 23.1113 76.5234H22.0273C22.0273 76.3477 21.9746 76.1777 21.8691 76.0137C21.7676 75.8457 21.6172 75.707 21.418 75.5977C21.2227 75.4883 20.9824 75.4336 20.6973 75.4336C20.3965 75.4336 20.1523 75.4805 19.9648 75.5742C19.7812 75.6641 19.6465 75.7793 19.5605 75.9199C19.4785 76.0605 19.4375 76.209 19.4375 76.3652C19.4375 76.4824 19.457 76.5879 19.4961 76.6816C19.5391 76.7715 19.6133 76.8555 19.7188 76.9336C19.8242 77.0078 19.9727 77.0781 20.1641 77.1445C20.3555 77.2109 20.5996 77.2773 20.8965 77.3438C21.416 77.4609 21.8438 77.6016 22.1797 77.7656C22.5156 77.9297 22.7656 78.1309 22.9297 78.3691C23.0938 78.6074 23.1758 78.8965 23.1758 79.2363C23.1758 79.5137 23.1172 79.7676 23 79.998C22.8867 80.2285 22.7207 80.4277 22.502 80.5957C22.2871 80.7598 22.0293 80.8887 21.7285 80.9824C21.4316 81.0723 21.0977 81.1172 20.7266 81.1172C20.168 81.1172 19.6953 81.0176 19.3086 80.8184C18.9219 80.6191 18.6289 80.3613 18.4297 80.0449C18.2305 79.7285 18.1309 79.3945 18.1309 79.043H19.2207C19.2363 79.3398 19.3223 79.5762 19.4785 79.752C19.6348 79.9238 19.8262 80.0469 20.0527 80.1211C20.2793 80.1914 20.5039 80.2266 20.7266 80.2266C21.0234 80.2266 21.2715 80.1875 21.4707 80.1094C21.6738 80.0312 21.8281 79.9238 21.9336 79.7871C22.0391 79.6504 22.0918 79.4941 22.0918 79.3184ZM27.1367 80.2266C27.3945 80.2266 27.6328 80.1738 27.8516 80.0684C28.0703 79.9629 28.25 79.8184 28.3906 79.6348C28.5312 79.4473 28.6113 79.2344 28.6309 78.9961H29.6621C29.6426 79.3711 29.5156 79.7207 29.2812 80.0449C29.0508 80.3652 28.748 80.625 28.373 80.8242C27.998 81.0195 27.5859 81.1172 27.1367 81.1172C26.6602 81.1172 26.2441 81.0332 25.8887 80.8652C25.5371 80.6973 25.2441 80.4668 25.0098 80.1738C24.7793 79.8809 24.6055 79.5449 24.4883 79.166C24.375 78.7832 24.3184 78.3789 24.3184 77.9531V77.707C24.3184 77.2812 24.375 76.8789 24.4883 76.5C24.6055 76.1172 24.7793 75.7793 25.0098 75.4863C25.2441 75.1934 25.5371 74.9629 25.8887 74.7949C26.2441 74.627 26.6602 74.543 27.1367 74.543C27.6328 74.543 28.0664 74.6445 28.4375 74.8477C28.8086 75.0469 29.0996 75.3203 29.3105 75.668C29.5254 76.0117 29.6426 76.4023 29.6621 76.8398H28.6309C28.6113 76.5781 28.5371 76.3418 28.4082 76.1309C28.2832 75.9199 28.1113 75.752 27.8926 75.627C27.6777 75.498 27.4258 75.4336 27.1367 75.4336C26.8047 75.4336 26.5254 75.5 26.2988 75.6328C26.0762 75.7617 25.8984 75.9375 25.7656 76.1602C25.6367 76.3789 25.543 76.623 25.4844 76.8926C25.4297 77.1582 25.4023 77.4297 25.4023 77.707V77.9531C25.4023 78.2305 25.4297 78.5039 25.4844 78.7734C25.5391 79.043 25.6309 79.2871 25.7598 79.5059C25.8926 79.7246 26.0703 79.9004 26.293 80.0332C26.5195 80.1621 26.8008 80.2266 27.1367 80.2266ZM32.0586 74.6602V81H30.9688V74.6602H32.0586ZM30.8867 72.9785C30.8867 72.8027 30.9395 72.6543 31.0449 72.5332C31.1543 72.4121 31.3145 72.3516 31.5254 72.3516C31.7324 72.3516 31.8906 72.4121 32 72.5332C32.1133 72.6543 32.1699 72.8027 32.1699 72.9785C32.1699 73.1465 32.1133 73.291 32 73.4121C31.8906 73.5293 31.7324 73.5879 31.5254 73.5879C31.3145 73.5879 31.1543 73.5293 31.0449 73.4121C30.9395 73.291 30.8867 73.1465 30.8867 72.9785ZM34.8828 76.0137V81H33.7988V74.6602H34.8242L34.8828 76.0137ZM34.625 77.5898L34.1738 77.5723C34.1777 77.1387 34.2422 76.7383 34.3672 76.3711C34.4922 76 34.668 75.6777 34.8945 75.4043C35.1211 75.1309 35.3906 74.9199 35.7031 74.7715C36.0195 74.6191 36.3691 74.543 36.752 74.543C37.0645 74.543 37.3457 74.5859 37.5957 74.6719C37.8457 74.7539 38.0586 74.8867 38.2344 75.0703C38.4141 75.2539 38.5508 75.4922 38.6445 75.7852C38.7383 76.0742 38.7852 76.4277 38.7852 76.8457V81H37.6953V76.834C37.6953 76.502 37.6465 76.2363 37.5488 76.0371C37.4512 75.834 37.3086 75.6875 37.1211 75.5977C36.9336 75.5039 36.7031 75.457 36.4297 75.457C36.1602 75.457 35.9141 75.5137 35.6914 75.627C35.4727 75.7402 35.2832 75.8965 35.123 76.0957C34.9668 76.2949 34.8438 76.5234 34.7539 76.7812C34.668 77.0352 34.625 77.3047 34.625 77.5898ZM44.1699 79.916V76.6523C44.1699 76.4023 44.1191 76.1855 44.0176 76.002C43.9199 75.8145 43.7715 75.6699 43.5723 75.5684C43.373 75.4668 43.127 75.416 42.834 75.416C42.5605 75.416 42.3203 75.4629 42.1133 75.5566C41.9102 75.6504 41.75 75.7734 41.6328 75.9258C41.5195 76.0781 41.4629 76.2422 41.4629 76.418H40.3789C40.3789 76.1914 40.4375 75.9668 40.5547 75.7441C40.6719 75.5215 40.8398 75.3203 41.0586 75.1406C41.2812 74.957 41.5469 74.8125 41.8555 74.707C42.168 74.5977 42.5156 74.543 42.8984 74.543C43.3594 74.543 43.7656 74.6211 44.1172 74.7773C44.4727 74.9336 44.75 75.1699 44.9492 75.4863C45.1523 75.7988 45.2539 76.1914 45.2539 76.6641V79.6172C45.2539 79.8281 45.2715 80.0527 45.3066 80.291C45.3457 80.5293 45.4023 80.7344 45.4766 80.9062V81H44.3457C44.291 80.875 44.248 80.709 44.2168 80.502C44.1855 80.291 44.1699 80.0957 44.1699 79.916ZM44.3574 77.1562L44.3691 77.918H43.2734C42.9648 77.918 42.6895 77.9434 42.4473 77.9941C42.2051 78.041 42.002 78.1133 41.8379 78.2109C41.6738 78.3086 41.5488 78.4316 41.4629 78.5801C41.377 78.7246 41.334 78.8945 41.334 79.0898C41.334 79.2891 41.3789 79.4707 41.4688 79.6348C41.5586 79.7988 41.6934 79.9297 41.873 80.0273C42.0566 80.1211 42.2812 80.168 42.5469 80.168C42.8789 80.168 43.1719 80.0977 43.4258 79.957C43.6797 79.8164 43.8809 79.6445 44.0293 79.4414C44.1816 79.2383 44.2637 79.041 44.2754 78.8496L44.7383 79.3711C44.7109 79.5352 44.6367 79.7168 44.5156 79.916C44.3945 80.1152 44.2324 80.3066 44.0293 80.4902C43.8301 80.6699 43.5918 80.8203 43.3145 80.9414C43.041 81.0586 42.7324 81.1172 42.3887 81.1172C41.959 81.1172 41.582 81.0332 41.2578 80.8652C40.9375 80.6973 40.6875 80.4727 40.5078 80.1914C40.332 79.9062 40.2441 79.5879 40.2441 79.2363C40.2441 78.8965 40.3105 78.5977 40.4434 78.3398C40.5762 78.0781 40.7676 77.8613 41.0176 77.6895C41.2676 77.5137 41.5684 77.3809 41.9199 77.291C42.2715 77.2012 42.6641 77.1562 43.0977 77.1562H44.3574ZM49.6484 77.9004V77.7656C49.6484 77.3086 49.7148 76.8848 49.8477 76.4941C49.9805 76.0996 50.1719 75.7578 50.4219 75.4688C50.6719 75.1758 50.9746 74.9492 51.3301 74.7891C51.6855 74.625 52.084 74.543 52.5254 74.543C52.9707 74.543 53.3711 74.625 53.7266 74.7891C54.0859 74.9492 54.3906 75.1758 54.6406 75.4688C54.8945 75.7578 55.0879 76.0996 55.2207 76.4941C55.3535 76.8848 55.4199 77.3086 55.4199 77.7656V77.9004C55.4199 78.3574 55.3535 78.7812 55.2207 79.1719C55.0879 79.5625 54.8945 79.9043 54.6406 80.1973C54.3906 80.4863 54.0879 80.7129 53.7324 80.877C53.3809 81.0371 52.9824 81.1172 52.5371 81.1172C52.0918 81.1172 51.6914 81.0371 51.3359 80.877C50.9805 80.7129 50.6758 80.4863 50.4219 80.1973C50.1719 79.9043 49.9805 79.5625 49.8477 79.1719C49.7148 78.7812 49.6484 78.3574 49.6484 77.9004ZM50.7324 77.7656V77.9004C50.7324 78.2168 50.7695 78.5156 50.8438 78.7969C50.918 79.0742 51.0293 79.3203 51.1777 79.5352C51.3301 79.75 51.5195 79.9199 51.7461 80.0449C51.9727 80.166 52.2363 80.2266 52.5371 80.2266C52.834 80.2266 53.0938 80.166 53.3164 80.0449C53.543 79.9199 53.7305 79.75 53.8789 79.5352C54.0273 79.3203 54.1387 79.0742 54.2129 78.7969C54.291 78.5156 54.3301 78.2168 54.3301 77.9004V77.7656C54.3301 77.4531 54.291 77.1582 54.2129 76.8809C54.1387 76.5996 54.0254 76.3516 53.873 76.1367C53.7246 75.918 53.5371 75.7461 53.3105 75.6211C53.0879 75.4961 52.8262 75.4336 52.5254 75.4336C52.2285 75.4336 51.9668 75.4961 51.7402 75.6211C51.5176 75.7461 51.3301 75.918 51.1777 76.1367C51.0293 76.3516 50.918 76.5996 50.8438 76.8809C50.7695 77.1582 50.7324 77.4531 50.7324 77.7656ZM63.4473 79.3184C63.4473 79.1621 63.4121 79.0176 63.3418 78.8848C63.2754 78.748 63.1367 78.625 62.9258 78.5156C62.7188 78.4023 62.4062 78.3047 61.9883 78.2227C61.6367 78.1484 61.3184 78.0605 61.0332 77.959C60.752 77.8574 60.5117 77.7344 60.3125 77.5898C60.1172 77.4453 59.9668 77.2754 59.8613 77.0801C59.7559 76.8848 59.7031 76.6562 59.7031 76.3945C59.7031 76.1445 59.7578 75.9082 59.8672 75.6855C59.9805 75.4629 60.1387 75.2656 60.3418 75.0938C60.5488 74.9219 60.7969 74.7871 61.0859 74.6895C61.375 74.5918 61.6973 74.543 62.0527 74.543C62.5605 74.543 62.9941 74.6328 63.3535 74.8125C63.7129 74.9922 63.9883 75.2324 64.1797 75.5332C64.3711 75.8301 64.4668 76.1602 64.4668 76.5234H63.3828C63.3828 76.3477 63.3301 76.1777 63.2246 76.0137C63.123 75.8457 62.9727 75.707 62.7734 75.5977C62.5781 75.4883 62.3379 75.4336 62.0527 75.4336C61.752 75.4336 61.5078 75.4805 61.3203 75.5742C61.1367 75.6641 61.002 75.7793 60.916 75.9199C60.834 76.0605 60.793 76.209 60.793 76.3652C60.793 76.4824 60.8125 76.5879 60.8516 76.6816C60.8945 76.7715 60.9688 76.8555 61.0742 76.9336C61.1797 77.0078 61.3281 77.0781 61.5195 77.1445C61.7109 77.2109 61.9551 77.2773 62.252 77.3438C62.7715 77.4609 63.1992 77.6016 63.5352 77.7656C63.8711 77.9297 64.1211 78.1309 64.2852 78.3691C64.4492 78.6074 64.5312 78.8965 64.5312 79.2363C64.5312 79.5137 64.4727 79.7676 64.3555 79.998C64.2422 80.2285 64.0762 80.4277 63.8574 80.5957C63.6426 80.7598 63.3848 80.8887 63.084 80.9824C62.7871 81.0723 62.4531 81.1172 62.082 81.1172C61.5234 81.1172 61.0508 81.0176 60.6641 80.8184C60.2773 80.6191 59.9844 80.3613 59.7852 80.0449C59.5859 79.7285 59.4863 79.3945 59.4863 79.043H60.5762C60.5918 79.3398 60.6777 79.5762 60.834 79.752C60.9902 79.9238 61.1816 80.0469 61.4082 80.1211C61.6348 80.1914 61.8594 80.2266 62.082 80.2266C62.3789 80.2266 62.627 80.1875 62.8262 80.1094C63.0293 80.0312 63.1836 79.9238 63.2891 79.7871C63.3945 79.6504 63.4473 79.4941 63.4473 79.3184ZM68.5859 81.1172C68.1445 81.1172 67.7441 81.043 67.3848 80.8945C67.0293 80.7422 66.7227 80.5293 66.4648 80.2559C66.2109 79.9824 66.0156 79.6582 65.8789 79.2832C65.7422 78.9082 65.6738 78.498 65.6738 78.0527V77.8066C65.6738 77.291 65.75 76.832 65.9023 76.4297C66.0547 76.0234 66.2617 75.6797 66.5234 75.3984C66.7852 75.1172 67.082 74.9043 67.4141 74.7598C67.7461 74.6152 68.0898 74.543 68.4453 74.543C68.8984 74.543 69.2891 74.6211 69.6172 74.7773C69.9492 74.9336 70.2207 75.1523 70.4316 75.4336C70.6426 75.7109 70.7988 76.0391 70.9004 76.418C71.002 76.793 71.0527 77.2031 71.0527 77.6484V78.1348H66.3184V77.25H69.9688V77.168C69.9531 76.8867 69.8945 76.6133 69.793 76.3477C69.6953 76.082 69.5391 75.8633 69.3242 75.6914C69.1094 75.5195 68.8164 75.4336 68.4453 75.4336C68.1992 75.4336 67.9727 75.4863 67.7656 75.5918C67.5586 75.6934 67.3809 75.8457 67.2324 76.0488C67.084 76.252 66.9688 76.5 66.8867 76.793C66.8047 77.0859 66.7637 77.4238 66.7637 77.8066V78.0527C66.7637 78.3535 66.8047 78.6367 66.8867 78.9023C66.9727 79.1641 67.0957 79.3945 67.2559 79.5938C67.4199 79.793 67.6172 79.9492 67.8477 80.0625C68.082 80.1758 68.3477 80.2324 68.6445 80.2324C69.0273 80.2324 69.3516 80.1543 69.6172 79.998C69.8828 79.8418 70.1152 79.6328 70.3145 79.3711L70.9707 79.8926C70.834 80.0996 70.6602 80.2969 70.4492 80.4844C70.2383 80.6719 69.9785 80.8242 69.6699 80.9414C69.3652 81.0586 69.0039 81.1172 68.5859 81.1172ZM73.4961 72V81H72.4062V72H73.4961ZM77.8672 81.1172C77.4258 81.1172 77.0254 81.043 76.666 80.8945C76.3105 80.7422 76.0039 80.5293 75.7461 80.2559C75.4922 79.9824 75.2969 79.6582 75.1602 79.2832C75.0234 78.9082 74.9551 78.498 74.9551 78.0527V77.8066C74.9551 77.291 75.0312 76.832 75.1836 76.4297C75.3359 76.0234 75.543 75.6797 75.8047 75.3984C76.0664 75.1172 76.3633 74.9043 76.6953 74.7598C77.0273 74.6152 77.3711 74.543 77.7266 74.543C78.1797 74.543 78.5703 74.6211 78.8984 74.7773C79.2305 74.9336 79.502 75.1523 79.7129 75.4336C79.9238 75.7109 80.0801 76.0391 80.1816 76.418C80.2832 76.793 80.334 77.2031 80.334 77.6484V78.1348H75.5996V77.25H79.25V77.168C79.2344 76.8867 79.1758 76.6133 79.0742 76.3477C78.9766 76.082 78.8203 75.8633 78.6055 75.6914C78.3906 75.5195 78.0977 75.4336 77.7266 75.4336C77.4805 75.4336 77.2539 75.4863 77.0469 75.5918C76.8398 75.6934 76.6621 75.8457 76.5137 76.0488C76.3652 76.252 76.25 76.5 76.168 76.793C76.0859 77.0859 76.0449 77.4238 76.0449 77.8066V78.0527C76.0449 78.3535 76.0859 78.6367 76.168 78.9023C76.2539 79.1641 76.377 79.3945 76.5371 79.5938C76.7012 79.793 76.8984 79.9492 77.1289 80.0625C77.3633 80.1758 77.6289 80.2324 77.9258 80.2324C78.3086 80.2324 78.6328 80.1543 78.8984 79.998C79.1641 79.8418 79.3965 79.6328 79.5957 79.3711L80.252 79.8926C80.1152 80.0996 79.9414 80.2969 79.7305 80.4844C79.5195 80.6719 79.2598 80.8242 78.9512 80.9414C78.6465 81.0586 78.2852 81.1172 77.8672 81.1172ZM86.3223 80.1094V81H81.7109V80.1094H86.3223ZM86.1523 75.4277L81.957 81H81.2949V80.2031L85.4609 74.6602H86.1523V75.4277ZM85.6719 74.6602V75.5566H81.3418V74.6602H85.6719ZM88.7305 74.6602V81H87.6406V74.6602H88.7305ZM87.5586 72.9785C87.5586 72.8027 87.6113 72.6543 87.7168 72.5332C87.8262 72.4121 87.9863 72.3516 88.1973 72.3516C88.4043 72.3516 88.5625 72.4121 88.6719 72.5332C88.7852 72.6543 88.8418 72.8027 88.8418 72.9785C88.8418 73.1465 88.7852 73.291 88.6719 73.4121C88.5625 73.5293 88.4043 73.5879 88.1973 73.5879C87.9863 73.5879 87.8262 73.5293 87.7168 73.4121C87.6113 73.291 87.5586 73.1465 87.5586 72.9785ZM90.1836 77.9004V77.7656C90.1836 77.3086 90.25 76.8848 90.3828 76.4941C90.5156 76.0996 90.707 75.7578 90.957 75.4688C91.207 75.1758 91.5098 74.9492 91.8652 74.7891C92.2207 74.625 92.6191 74.543 93.0605 74.543C93.5059 74.543 93.9062 74.625 94.2617 74.7891C94.6211 74.9492 94.9258 75.1758 95.1758 75.4688C95.4297 75.7578 95.623 76.0996 95.7559 76.4941C95.8887 76.8848 95.9551 77.3086 95.9551 77.7656V77.9004C95.9551 78.3574 95.8887 78.7812 95.7559 79.1719C95.623 79.5625 95.4297 79.9043 95.1758 80.1973C94.9258 80.4863 94.623 80.7129 94.2676 80.877C93.916 81.0371 93.5176 81.1172 93.0723 81.1172C92.627 81.1172 92.2266 81.0371 91.8711 80.877C91.5156 80.7129 91.2109 80.4863 90.957 80.1973C90.707 79.9043 90.5156 79.5625 90.3828 79.1719C90.25 78.7812 90.1836 78.3574 90.1836 77.9004ZM91.2676 77.7656V77.9004C91.2676 78.2168 91.3047 78.5156 91.3789 78.7969C91.4531 79.0742 91.5645 79.3203 91.7129 79.5352C91.8652 79.75 92.0547 79.9199 92.2812 80.0449C92.5078 80.166 92.7715 80.2266 93.0723 80.2266C93.3691 80.2266 93.6289 80.166 93.8516 80.0449C94.0781 79.9199 94.2656 79.75 94.4141 79.5352C94.5625 79.3203 94.6738 79.0742 94.748 78.7969C94.8262 78.5156 94.8652 78.2168 94.8652 77.9004V77.7656C94.8652 77.4531 94.8262 77.1582 94.748 76.8809C94.6738 76.5996 94.5605 76.3516 94.4082 76.1367C94.2598 75.918 94.0723 75.7461 93.8457 75.6211C93.623 75.4961 93.3613 75.4336 93.0605 75.4336C92.7637 75.4336 92.502 75.4961 92.2754 75.6211C92.0527 75.7461 91.8652 75.918 91.7129 76.1367C91.5645 76.3516 91.4531 76.5996 91.3789 76.8809C91.3047 77.1582 91.2676 77.4531 91.2676 77.7656ZM98.3984 76.0137V81H97.3145V74.6602H98.3398L98.3984 76.0137ZM98.1406 77.5898L97.6895 77.5723C97.6934 77.1387 97.7578 76.7383 97.8828 76.3711C98.0078 76 98.1836 75.6777 98.4102 75.4043C98.6367 75.1309 98.9062 74.9199 99.2188 74.7715C99.5352 74.6191 99.8848 74.543 100.268 74.543C100.58 74.543 100.861 74.5859 101.111 74.6719C101.361 74.7539 101.574 74.8867 101.75 75.0703C101.93 75.2539 102.066 75.4922 102.16 75.7852C102.254 76.0742 102.301 76.4277 102.301 76.8457V81H101.211V76.834C101.211 76.502 101.162 76.2363 101.064 76.0371C100.967 75.834 100.824 75.6875 100.637 75.5977C100.449 75.5039 100.219 75.457 99.9453 75.457C99.6758 75.457 99.4297 75.5137 99.207 75.627C98.9883 75.7402 98.7988 75.8965 98.6387 76.0957C98.4824 76.2949 98.3594 76.5234 98.2695 76.7812C98.1836 77.0352 98.1406 77.3047 98.1406 77.5898ZM107.686 79.916V76.6523C107.686 76.4023 107.635 76.1855 107.533 76.002C107.436 75.8145 107.287 75.6699 107.088 75.5684C106.889 75.4668 106.643 75.416 106.35 75.416C106.076 75.416 105.836 75.4629 105.629 75.5566C105.426 75.6504 105.266 75.7734 105.148 75.9258C105.035 76.0781 104.979 76.2422 104.979 76.418H103.895C103.895 76.1914 103.953 75.9668 104.07 75.7441C104.188 75.5215 104.355 75.3203 104.574 75.1406C104.797 74.957 105.062 74.8125 105.371 74.707C105.684 74.5977 106.031 74.543 106.414 74.543C106.875 74.543 107.281 74.6211 107.633 74.7773C107.988 74.9336 108.266 75.1699 108.465 75.4863C108.668 75.7988 108.77 76.1914 108.77 76.6641V79.6172C108.77 79.8281 108.787 80.0527 108.822 80.291C108.861 80.5293 108.918 80.7344 108.992 80.9062V81H107.861C107.807 80.875 107.764 80.709 107.732 80.502C107.701 80.291 107.686 80.0957 107.686 79.916ZM107.873 77.1562L107.885 77.918H106.789C106.48 77.918 106.205 77.9434 105.963 77.9941C105.721 78.041 105.518 78.1133 105.354 78.2109C105.189 78.3086 105.064 78.4316 104.979 78.5801C104.893 78.7246 104.85 78.8945 104.85 79.0898C104.85 79.2891 104.895 79.4707 104.984 79.6348C105.074 79.7988 105.209 79.9297 105.389 80.0273C105.572 80.1211 105.797 80.168 106.062 80.168C106.395 80.168 106.688 80.0977 106.941 79.957C107.195 79.8164 107.396 79.6445 107.545 79.4414C107.697 79.2383 107.779 79.041 107.791 78.8496L108.254 79.3711C108.227 79.5352 108.152 79.7168 108.031 79.916C107.91 80.1152 107.748 80.3066 107.545 80.4902C107.346 80.6699 107.107 80.8203 106.83 80.9414C106.557 81.0586 106.248 81.1172 105.904 81.1172C105.475 81.1172 105.098 81.0332 104.773 80.8652C104.453 80.6973 104.203 80.4727 104.023 80.1914C103.848 79.9062 103.76 79.5879 103.76 79.2363C103.76 78.8965 103.826 78.5977 103.959 78.3398C104.092 78.0781 104.283 77.8613 104.533 77.6895C104.783 77.5137 105.084 77.3809 105.436 77.291C105.787 77.2012 106.18 77.1562 106.613 77.1562H107.873ZM114.629 72V81H113.539V72H114.629ZM119 81.1172C118.559 81.1172 118.158 81.043 117.799 80.8945C117.443 80.7422 117.137 80.5293 116.879 80.2559C116.625 79.9824 116.43 79.6582 116.293 79.2832C116.156 78.9082 116.088 78.498 116.088 78.0527V77.8066C116.088 77.291 116.164 76.832 116.316 76.4297C116.469 76.0234 116.676 75.6797 116.938 75.3984C117.199 75.1172 117.496 74.9043 117.828 74.7598C118.16 74.6152 118.504 74.543 118.859 74.543C119.312 74.543 119.703 74.6211 120.031 74.7773C120.363 74.9336 120.635 75.1523 120.846 75.4336C121.057 75.7109 121.213 76.0391 121.314 76.418C121.416 76.793 121.467 77.2031 121.467 77.6484V78.1348H116.732V77.25H120.383V77.168C120.367 76.8867 120.309 76.6133 120.207 76.3477C120.109 76.082 119.953 75.8633 119.738 75.6914C119.523 75.5195 119.23 75.4336 118.859 75.4336C118.613 75.4336 118.387 75.4863 118.18 75.5918C117.973 75.6934 117.795 75.8457 117.646 76.0488C117.498 76.252 117.383 76.5 117.301 76.793C117.219 77.0859 117.178 77.4238 117.178 77.8066V78.0527C117.178 78.3535 117.219 78.6367 117.301 78.9023C117.387 79.1641 117.51 79.3945 117.67 79.5938C117.834 79.793 118.031 79.9492 118.262 80.0625C118.496 80.1758 118.762 80.2324 119.059 80.2324C119.441 80.2324 119.766 80.1543 120.031 79.998C120.297 79.8418 120.529 79.6328 120.729 79.3711L121.385 79.8926C121.248 80.0996 121.074 80.2969 120.863 80.4844C120.652 80.6719 120.393 80.8242 120.084 80.9414C119.779 81.0586 119.418 81.1172 119 81.1172ZM126.887 74.6602V81H125.797V74.6602H126.887ZM125.715 72.9785C125.715 72.8027 125.768 72.6543 125.873 72.5332C125.982 72.4121 126.143 72.3516 126.354 72.3516C126.561 72.3516 126.719 72.4121 126.828 72.5332C126.941 72.6543 126.998 72.8027 126.998 72.9785C126.998 73.1465 126.941 73.291 126.828 73.4121C126.719 73.5293 126.561 73.5879 126.354 73.5879C126.143 73.5879 125.982 73.5293 125.873 73.4121C125.768 73.291 125.715 73.1465 125.715 72.9785ZM129.705 75.9199V81H128.615V74.6602H129.646L129.705 75.9199ZM129.482 77.5898L128.979 77.5723C128.982 77.1387 129.039 76.7383 129.148 76.3711C129.258 76 129.42 75.6777 129.635 75.4043C129.85 75.1309 130.117 74.9199 130.438 74.7715C130.758 74.6191 131.129 74.543 131.551 74.543C131.848 74.543 132.121 74.5859 132.371 74.6719C132.621 74.7539 132.838 74.8848 133.021 75.0645C133.205 75.2441 133.348 75.4746 133.449 75.7559C133.551 76.0371 133.602 76.377 133.602 76.7754V81H132.518V76.8281C132.518 76.4961 132.461 76.2305 132.348 76.0312C132.238 75.832 132.082 75.6875 131.879 75.5977C131.676 75.5039 131.438 75.457 131.164 75.457C130.844 75.457 130.576 75.5137 130.361 75.627C130.146 75.7402 129.975 75.8965 129.846 76.0957C129.717 76.2949 129.623 76.5234 129.564 76.7812C129.51 77.0352 129.482 77.3047 129.482 77.5898ZM133.59 76.9922L132.863 77.2148C132.867 76.8672 132.924 76.5332 133.033 76.2129C133.146 75.8926 133.309 75.6074 133.52 75.3574C133.734 75.1074 133.998 74.9102 134.311 74.7656C134.623 74.6172 134.98 74.543 135.383 74.543C135.723 74.543 136.023 74.5879 136.285 74.6777C136.551 74.7676 136.773 74.9062 136.953 75.0938C137.137 75.2773 137.275 75.5137 137.369 75.8027C137.463 76.0918 137.51 76.4355 137.51 76.834V81H136.42V76.8223C136.42 76.4668 136.363 76.1914 136.25 75.9961C136.141 75.7969 135.984 75.6582 135.781 75.5801C135.582 75.498 135.344 75.457 135.066 75.457C134.828 75.457 134.617 75.498 134.434 75.5801C134.25 75.6621 134.096 75.7754 133.971 75.9199C133.846 76.0605 133.75 76.2227 133.684 76.4062C133.621 76.5898 133.59 76.7852 133.59 76.9922ZM140.229 75.9199V81H139.139V74.6602H140.17L140.229 75.9199ZM140.006 77.5898L139.502 77.5723C139.506 77.1387 139.562 76.7383 139.672 76.3711C139.781 76 139.943 75.6777 140.158 75.4043C140.373 75.1309 140.641 74.9199 140.961 74.7715C141.281 74.6191 141.652 74.543 142.074 74.543C142.371 74.543 142.645 74.5859 142.895 74.6719C143.145 74.7539 143.361 74.8848 143.545 75.0645C143.729 75.2441 143.871 75.4746 143.973 75.7559C144.074 76.0371 144.125 76.377 144.125 76.7754V81H143.041V76.8281C143.041 76.4961 142.984 76.2305 142.871 76.0312C142.762 75.832 142.605 75.6875 142.402 75.5977C142.199 75.5039 141.961 75.457 141.688 75.457C141.367 75.457 141.1 75.5137 140.885 75.627C140.67 75.7402 140.498 75.8965 140.369 76.0957C140.24 76.2949 140.146 76.5234 140.088 76.7812C140.033 77.0352 140.006 77.3047 140.006 77.5898ZM144.113 76.9922L143.387 77.2148C143.391 76.8672 143.447 76.5332 143.557 76.2129C143.67 75.8926 143.832 75.6074 144.043 75.3574C144.258 75.1074 144.521 74.9102 144.834 74.7656C145.146 74.6172 145.504 74.543 145.906 74.543C146.246 74.543 146.547 74.5879 146.809 74.6777C147.074 74.7676 147.297 74.9062 147.477 75.0938C147.66 75.2773 147.799 75.5137 147.893 75.8027C147.986 76.0918 148.033 76.4355 148.033 76.834V81H146.943V76.8223C146.943 76.4668 146.887 76.1914 146.773 75.9961C146.664 75.7969 146.508 75.6582 146.305 75.5801C146.105 75.498 145.867 75.457 145.59 75.457C145.352 75.457 145.141 75.498 144.957 75.5801C144.773 75.6621 144.619 75.7754 144.494 75.9199C144.369 76.0605 144.273 76.2227 144.207 76.4062C144.145 76.5898 144.113 76.7852 144.113 76.9922ZM153.412 79.916V76.6523C153.412 76.4023 153.361 76.1855 153.26 76.002C153.162 75.8145 153.014 75.6699 152.814 75.5684C152.615 75.4668 152.369 75.416 152.076 75.416C151.803 75.416 151.562 75.4629 151.355 75.5566C151.152 75.6504 150.992 75.7734 150.875 75.9258C150.762 76.0781 150.705 76.2422 150.705 76.418H149.621C149.621 76.1914 149.68 75.9668 149.797 75.7441C149.914 75.5215 150.082 75.3203 150.301 75.1406C150.523 74.957 150.789 74.8125 151.098 74.707C151.41 74.5977 151.758 74.543 152.141 74.543C152.602 74.543 153.008 74.6211 153.359 74.7773C153.715 74.9336 153.992 75.1699 154.191 75.4863C154.395 75.7988 154.496 76.1914 154.496 76.6641V79.6172C154.496 79.8281 154.514 80.0527 154.549 80.291C154.588 80.5293 154.645 80.7344 154.719 80.9062V81H153.588C153.533 80.875 153.49 80.709 153.459 80.502C153.428 80.291 153.412 80.0957 153.412 79.916ZM153.6 77.1562L153.611 77.918H152.516C152.207 77.918 151.932 77.9434 151.689 77.9941C151.447 78.041 151.244 78.1133 151.08 78.2109C150.916 78.3086 150.791 78.4316 150.705 78.5801C150.619 78.7246 150.576 78.8945 150.576 79.0898C150.576 79.2891 150.621 79.4707 150.711 79.6348C150.801 79.7988 150.936 79.9297 151.115 80.0273C151.299 80.1211 151.523 80.168 151.789 80.168C152.121 80.168 152.414 80.0977 152.668 79.957C152.922 79.8164 153.123 79.6445 153.271 79.4414C153.424 79.2383 153.506 79.041 153.518 78.8496L153.98 79.3711C153.953 79.5352 153.879 79.7168 153.758 79.916C153.637 80.1152 153.475 80.3066 153.271 80.4902C153.072 80.6699 152.834 80.8203 152.557 80.9414C152.283 81.0586 151.975 81.1172 151.631 81.1172C151.201 81.1172 150.824 81.0332 150.5 80.8652C150.18 80.6973 149.93 80.4727 149.75 80.1914C149.574 79.9062 149.486 79.5879 149.486 79.2363C149.486 78.8965 149.553 78.5977 149.686 78.3398C149.818 78.0781 150.01 77.8613 150.26 77.6895C150.51 77.5137 150.811 77.3809 151.162 77.291C151.514 77.2012 151.906 77.1562 152.34 77.1562H153.6ZM160.309 74.6602H161.293V80.8652C161.293 81.4238 161.18 81.9004 160.953 82.2949C160.727 82.6895 160.41 82.9883 160.004 83.1914C159.602 83.3984 159.137 83.502 158.609 83.502C158.391 83.502 158.133 83.4668 157.836 83.3965C157.543 83.3301 157.254 83.2148 156.969 83.0508C156.688 82.8906 156.451 82.6738 156.26 82.4004L156.828 81.7559C157.094 82.0762 157.371 82.2988 157.66 82.4238C157.953 82.5488 158.242 82.6113 158.527 82.6113C158.871 82.6113 159.168 82.5469 159.418 82.418C159.668 82.2891 159.861 82.0977 159.998 81.8438C160.139 81.5938 160.209 81.2852 160.209 80.918V76.0547L160.309 74.6602ZM155.943 77.9004V77.7773C155.943 77.293 156 76.8535 156.113 76.459C156.23 76.0605 156.396 75.7188 156.611 75.4336C156.83 75.1484 157.094 74.9297 157.402 74.7773C157.711 74.6211 158.059 74.543 158.445 74.543C158.844 74.543 159.191 74.6133 159.488 74.7539C159.789 74.8906 160.043 75.0918 160.25 75.3574C160.461 75.6191 160.627 75.9355 160.748 76.3066C160.869 76.6777 160.953 77.0977 161 77.5664V78.1055C160.957 78.5703 160.873 78.9883 160.748 79.3594C160.627 79.7305 160.461 80.0469 160.25 80.3086C160.043 80.5703 159.789 80.7715 159.488 80.9121C159.188 81.0488 158.836 81.1172 158.434 81.1172C158.055 81.1172 157.711 81.0371 157.402 80.877C157.098 80.7168 156.836 80.4922 156.617 80.2031C156.398 79.9141 156.23 79.5742 156.113 79.1836C156 78.7891 155.943 78.3613 155.943 77.9004ZM157.027 77.7773V77.9004C157.027 78.2168 157.059 78.5137 157.121 78.791C157.188 79.0684 157.287 79.3125 157.42 79.5234C157.557 79.7344 157.73 79.9004 157.941 80.0215C158.152 80.1387 158.404 80.1973 158.697 80.1973C159.057 80.1973 159.354 80.1211 159.588 79.9688C159.822 79.8164 160.008 79.6152 160.145 79.3652C160.285 79.1152 160.395 78.8438 160.473 78.5508V77.1387C160.43 76.9238 160.363 76.7168 160.273 76.5176C160.188 76.3145 160.074 76.1348 159.934 75.9785C159.797 75.8184 159.627 75.6914 159.424 75.5977C159.221 75.5039 158.982 75.457 158.709 75.457C158.412 75.457 158.156 75.5195 157.941 75.6445C157.73 75.7656 157.557 75.9336 157.42 76.1484C157.287 76.3594 157.188 76.6055 157.121 76.8867C157.059 77.1641 157.027 77.4609 157.027 77.7773ZM164.117 74.6602V81H163.027V74.6602H164.117ZM162.945 72.9785C162.945 72.8027 162.998 72.6543 163.104 72.5332C163.213 72.4121 163.373 72.3516 163.584 72.3516C163.791 72.3516 163.949 72.4121 164.059 72.5332C164.172 72.6543 164.229 72.8027 164.229 72.9785C164.229 73.1465 164.172 73.291 164.059 73.4121C163.949 73.5293 163.791 73.5879 163.584 73.5879C163.373 73.5879 163.213 73.5293 163.104 73.4121C162.998 73.291 162.945 73.1465 162.945 72.9785ZM166.941 76.0137V81H165.857V74.6602H166.883L166.941 76.0137ZM166.684 77.5898L166.232 77.5723C166.236 77.1387 166.301 76.7383 166.426 76.3711C166.551 76 166.727 75.6777 166.953 75.4043C167.18 75.1309 167.449 74.9199 167.762 74.7715C168.078 74.6191 168.428 74.543 168.811 74.543C169.123 74.543 169.404 74.5859 169.654 74.6719C169.904 74.7539 170.117 74.8867 170.293 75.0703C170.473 75.2539 170.609 75.4922 170.703 75.7852C170.797 76.0742 170.844 76.4277 170.844 76.8457V81H169.754V76.834C169.754 76.502 169.705 76.2363 169.607 76.0371C169.51 75.834 169.367 75.6875 169.18 75.5977C168.992 75.5039 168.762 75.457 168.488 75.457C168.219 75.457 167.973 75.5137 167.75 75.627C167.531 75.7402 167.342 75.8965 167.182 76.0957C167.025 76.2949 166.902 76.5234 166.812 76.7812C166.727 77.0352 166.684 77.3047 166.684 77.5898ZM173.668 74.6602V81H172.578V74.6602H173.668ZM172.496 72.9785C172.496 72.8027 172.549 72.6543 172.654 72.5332C172.764 72.4121 172.924 72.3516 173.135 72.3516C173.342 72.3516 173.5 72.4121 173.609 72.5332C173.723 72.6543 173.779 72.8027 173.779 72.9785C173.779 73.1465 173.723 73.291 173.609 73.4121C173.5 73.5293 173.342 73.5879 173.135 73.5879C172.924 73.5879 172.764 73.5293 172.654 73.4121C172.549 73.291 172.496 73.1465 172.496 72.9785ZM180.922 80.2266C181.18 80.2266 181.418 80.1738 181.637 80.0684C181.855 79.9629 182.035 79.8184 182.176 79.6348C182.316 79.4473 182.396 79.2344 182.416 78.9961H183.447C183.428 79.3711 183.301 79.7207 183.066 80.0449C182.836 80.3652 182.533 80.625 182.158 80.8242C181.783 81.0195 181.371 81.1172 180.922 81.1172C180.445 81.1172 180.029 81.0332 179.674 80.8652C179.322 80.6973 179.029 80.4668 178.795 80.1738C178.564 79.8809 178.391 79.5449 178.273 79.166C178.16 78.7832 178.104 78.3789 178.104 77.9531V77.707C178.104 77.2812 178.16 76.8789 178.273 76.5C178.391 76.1172 178.564 75.7793 178.795 75.4863C179.029 75.1934 179.322 74.9629 179.674 74.7949C180.029 74.627 180.445 74.543 180.922 74.543C181.418 74.543 181.852 74.6445 182.223 74.8477C182.594 75.0469 182.885 75.3203 183.096 75.668C183.311 76.0117 183.428 76.4023 183.447 76.8398H182.416C182.396 76.5781 182.322 76.3418 182.193 76.1309C182.068 75.9199 181.896 75.752 181.678 75.627C181.463 75.498 181.211 75.4336 180.922 75.4336C180.59 75.4336 180.311 75.5 180.084 75.6328C179.861 75.7617 179.684 75.9375 179.551 76.1602C179.422 76.3789 179.328 76.623 179.27 76.8926C179.215 77.1582 179.188 77.4297 179.188 77.707V77.9531C179.188 78.2305 179.215 78.5039 179.27 78.7734C179.324 79.043 179.416 79.2871 179.545 79.5059C179.678 79.7246 179.855 79.9004 180.078 80.0332C180.305 80.1621 180.586 80.2266 180.922 80.2266ZM185.75 72V81H184.666V72H185.75ZM185.492 77.5898L185.041 77.5723C185.045 77.1387 185.109 76.7383 185.234 76.3711C185.359 76 185.535 75.6777 185.762 75.4043C185.988 75.1309 186.258 74.9199 186.57 74.7715C186.887 74.6191 187.236 74.543 187.619 74.543C187.932 74.543 188.213 74.5859 188.463 74.6719C188.713 74.7539 188.926 74.8867 189.102 75.0703C189.281 75.2539 189.418 75.4922 189.512 75.7852C189.605 76.0742 189.652 76.4277 189.652 76.8457V81H188.562V76.834C188.562 76.502 188.514 76.2363 188.416 76.0371C188.318 75.834 188.176 75.6875 187.988 75.5977C187.801 75.5039 187.57 75.457 187.297 75.457C187.027 75.457 186.781 75.5137 186.559 75.627C186.34 75.7402 186.15 75.8965 185.99 76.0957C185.834 76.2949 185.711 76.5234 185.621 76.7812C185.535 77.0352 185.492 77.3047 185.492 77.5898ZM193.906 81.1172C193.465 81.1172 193.064 81.043 192.705 80.8945C192.35 80.7422 192.043 80.5293 191.785 80.2559C191.531 79.9824 191.336 79.6582 191.199 79.2832C191.062 78.9082 190.994 78.498 190.994 78.0527V77.8066C190.994 77.291 191.07 76.832 191.223 76.4297C191.375 76.0234 191.582 75.6797 191.844 75.3984C192.105 75.1172 192.402 74.9043 192.734 74.7598C193.066 74.6152 193.41 74.543 193.766 74.543C194.219 74.543 194.609 74.6211 194.938 74.7773C195.27 74.9336 195.541 75.1523 195.752 75.4336C195.963 75.7109 196.119 76.0391 196.221 76.418C196.322 76.793 196.373 77.2031 196.373 77.6484V78.1348H191.639V77.25H195.289V77.168C195.273 76.8867 195.215 76.6133 195.113 76.3477C195.016 76.082 194.859 75.8633 194.645 75.6914C194.43 75.5195 194.137 75.4336 193.766 75.4336C193.52 75.4336 193.293 75.4863 193.086 75.5918C192.879 75.6934 192.701 75.8457 192.553 76.0488C192.404 76.252 192.289 76.5 192.207 76.793C192.125 77.0859 192.084 77.4238 192.084 77.8066V78.0527C192.084 78.3535 192.125 78.6367 192.207 78.9023C192.293 79.1641 192.416 79.3945 192.576 79.5938C192.74 79.793 192.938 79.9492 193.168 80.0625C193.402 80.1758 193.668 80.2324 193.965 80.2324C194.348 80.2324 194.672 80.1543 194.938 79.998C195.203 79.8418 195.436 79.6328 195.635 79.3711L196.291 79.8926C196.154 80.0996 195.98 80.2969 195.77 80.4844C195.559 80.6719 195.299 80.8242 194.99 80.9414C194.686 81.0586 194.324 81.1172 193.906 81.1172ZM204.611 79.7695V72H205.701V81H204.705L204.611 79.7695ZM200.346 77.9004V77.7773C200.346 77.293 200.404 76.8535 200.521 76.459C200.643 76.0605 200.812 75.7188 201.031 75.4336C201.254 75.1484 201.518 74.9297 201.822 74.7773C202.131 74.6211 202.475 74.543 202.854 74.543C203.252 74.543 203.6 74.6133 203.896 74.7539C204.197 74.8906 204.451 75.0918 204.658 75.3574C204.869 75.6191 205.035 75.9355 205.156 76.3066C205.277 76.6777 205.361 77.0977 205.408 77.5664V78.1055C205.365 78.5703 205.281 78.9883 205.156 79.3594C205.035 79.7305 204.869 80.0469 204.658 80.3086C204.451 80.5703 204.197 80.7715 203.896 80.9121C203.596 81.0488 203.244 81.1172 202.842 81.1172C202.471 81.1172 202.131 81.0371 201.822 80.877C201.518 80.7168 201.254 80.4922 201.031 80.2031C200.812 79.9141 200.643 79.5742 200.521 79.1836C200.404 78.7891 200.346 78.3613 200.346 77.9004ZM201.436 77.7773V77.9004C201.436 78.2168 201.467 78.5137 201.529 78.791C201.596 79.0684 201.697 79.3125 201.834 79.5234C201.971 79.7344 202.145 79.9004 202.355 80.0215C202.566 80.1387 202.818 80.1973 203.111 80.1973C203.471 80.1973 203.766 80.1211 203.996 79.9688C204.23 79.8164 204.418 79.6152 204.559 79.3652C204.699 79.1152 204.809 78.8438 204.887 78.5508V77.1387C204.84 76.9238 204.771 76.7168 204.682 76.5176C204.596 76.3145 204.482 76.1348 204.342 75.9785C204.205 75.8184 204.035 75.6914 203.832 75.5977C203.633 75.5039 203.396 75.457 203.123 75.457C202.826 75.457 202.57 75.5195 202.355 75.6445C202.145 75.7656 201.971 75.9336 201.834 76.1484C201.697 76.3594 201.596 76.6055 201.529 76.8867C201.467 77.1641 201.436 77.4609 201.436 77.7773ZM210.02 81.1172C209.578 81.1172 209.178 81.043 208.818 80.8945C208.463 80.7422 208.156 80.5293 207.898 80.2559C207.645 79.9824 207.449 79.6582 207.312 79.2832C207.176 78.9082 207.107 78.498 207.107 78.0527V77.8066C207.107 77.291 207.184 76.832 207.336 76.4297C207.488 76.0234 207.695 75.6797 207.957 75.3984C208.219 75.1172 208.516 74.9043 208.848 74.7598C209.18 74.6152 209.523 74.543 209.879 74.543C210.332 74.543 210.723 74.6211 211.051 74.7773C211.383 74.9336 211.654 75.1523 211.865 75.4336C212.076 75.7109 212.232 76.0391 212.334 76.418C212.436 76.793 212.486 77.2031 212.486 77.6484V78.1348H207.752V77.25H211.402V77.168C211.387 76.8867 211.328 76.6133 211.227 76.3477C211.129 76.082 210.973 75.8633 210.758 75.6914C210.543 75.5195 210.25 75.4336 209.879 75.4336C209.633 75.4336 209.406 75.4863 209.199 75.5918C208.992 75.6934 208.814 75.8457 208.666 76.0488C208.518 76.252 208.402 76.5 208.32 76.793C208.238 77.0859 208.197 77.4238 208.197 77.8066V78.0527C208.197 78.3535 208.238 78.6367 208.32 78.9023C208.406 79.1641 208.529 79.3945 208.689 79.5938C208.854 79.793 209.051 79.9492 209.281 80.0625C209.516 80.1758 209.781 80.2324 210.078 80.2324C210.461 80.2324 210.785 80.1543 211.051 79.998C211.316 79.8418 211.549 79.6328 211.748 79.3711L212.404 79.8926C212.268 80.0996 212.094 80.2969 211.883 80.4844C211.672 80.6719 211.412 80.8242 211.104 80.9414C210.799 81.0586 210.438 81.1172 210.02 81.1172ZM217.443 79.3184C217.443 79.1621 217.408 79.0176 217.338 78.8848C217.271 78.748 217.133 78.625 216.922 78.5156C216.715 78.4023 216.402 78.3047 215.984 78.2227C215.633 78.1484 215.314 78.0605 215.029 77.959C214.748 77.8574 214.508 77.7344 214.309 77.5898C214.113 77.4453 213.963 77.2754 213.857 77.0801C213.752 76.8848 213.699 76.6562 213.699 76.3945C213.699 76.1445 213.754 75.9082 213.863 75.6855C213.977 75.4629 214.135 75.2656 214.338 75.0938C214.545 74.9219 214.793 74.7871 215.082 74.6895C215.371 74.5918 215.693 74.543 216.049 74.543C216.557 74.543 216.99 74.6328 217.35 74.8125C217.709 74.9922 217.984 75.2324 218.176 75.5332C218.367 75.8301 218.463 76.1602 218.463 76.5234H217.379C217.379 76.3477 217.326 76.1777 217.221 76.0137C217.119 75.8457 216.969 75.707 216.77 75.5977C216.574 75.4883 216.334 75.4336 216.049 75.4336C215.748 75.4336 215.504 75.4805 215.316 75.5742C215.133 75.6641 214.998 75.7793 214.912 75.9199C214.83 76.0605 214.789 76.209 214.789 76.3652C214.789 76.4824 214.809 76.5879 214.848 76.6816C214.891 76.7715 214.965 76.8555 215.07 76.9336C215.176 77.0078 215.324 77.0781 215.516 77.1445C215.707 77.2109 215.951 77.2773 216.248 77.3438C216.768 77.4609 217.195 77.6016 217.531 77.7656C217.867 77.9297 218.117 78.1309 218.281 78.3691C218.445 78.6074 218.527 78.8965 218.527 79.2363C218.527 79.5137 218.469 79.7676 218.352 79.998C218.238 80.2285 218.072 80.4277 217.854 80.5957C217.639 80.7598 217.381 80.8887 217.08 80.9824C216.783 81.0723 216.449 81.1172 216.078 81.1172C215.52 81.1172 215.047 81.0176 214.66 80.8184C214.273 80.6191 213.98 80.3613 213.781 80.0449C213.582 79.7285 213.482 79.3945 213.482 79.043H214.572C214.588 79.3398 214.674 79.5762 214.83 79.752C214.986 79.9238 215.178 80.0469 215.404 80.1211C215.631 80.1914 215.855 80.2266 216.078 80.2266C216.375 80.2266 216.623 80.1875 216.822 80.1094C217.025 80.0312 217.18 79.9238 217.285 79.7871C217.391 79.6504 217.443 79.4941 217.443 79.3184ZM221.129 74.6602V81H220.039V74.6602H221.129ZM219.957 72.9785C219.957 72.8027 220.01 72.6543 220.115 72.5332C220.225 72.4121 220.385 72.3516 220.596 72.3516C220.803 72.3516 220.961 72.4121 221.07 72.5332C221.184 72.6543 221.24 72.8027 221.24 72.9785C221.24 73.1465 221.184 73.291 221.07 73.4121C220.961 73.5293 220.803 73.5879 220.596 73.5879C220.385 73.5879 220.225 73.5293 220.115 73.4121C220.01 73.291 219.957 73.1465 219.957 72.9785ZM226.865 79.7695V72H227.955V81H226.959L226.865 79.7695ZM222.6 77.9004V77.7773C222.6 77.293 222.658 76.8535 222.775 76.459C222.896 76.0605 223.066 75.7188 223.285 75.4336C223.508 75.1484 223.771 74.9297 224.076 74.7773C224.385 74.6211 224.729 74.543 225.107 74.543C225.506 74.543 225.854 74.6133 226.15 74.7539C226.451 74.8906 226.705 75.0918 226.912 75.3574C227.123 75.6191 227.289 75.9355 227.41 76.3066C227.531 76.6777 227.615 77.0977 227.662 77.5664V78.1055C227.619 78.5703 227.535 78.9883 227.41 79.3594C227.289 79.7305 227.123 80.0469 226.912 80.3086C226.705 80.5703 226.451 80.7715 226.15 80.9121C225.85 81.0488 225.498 81.1172 225.096 81.1172C224.725 81.1172 224.385 81.0371 224.076 80.877C223.771 80.7168 223.508 80.4922 223.285 80.2031C223.066 79.9141 222.896 79.5742 222.775 79.1836C222.658 78.7891 222.6 78.3613 222.6 77.9004ZM223.689 77.7773V77.9004C223.689 78.2168 223.721 78.5137 223.783 78.791C223.85 79.0684 223.951 79.3125 224.088 79.5234C224.225 79.7344 224.398 79.9004 224.609 80.0215C224.82 80.1387 225.072 80.1973 225.365 80.1973C225.725 80.1973 226.02 80.1211 226.25 79.9688C226.484 79.8164 226.672 79.6152 226.812 79.3652C226.953 79.1152 227.062 78.8438 227.141 78.5508V77.1387C227.094 76.9238 227.025 76.7168 226.936 76.5176C226.85 76.3145 226.736 76.1348 226.596 75.9785C226.459 75.8184 226.289 75.6914 226.086 75.5977C225.887 75.5039 225.65 75.457 225.377 75.457C225.08 75.457 224.824 75.5195 224.609 75.6445C224.398 75.7656 224.225 75.9336 224.088 76.1484C223.951 76.3594 223.85 76.6055 223.783 76.8867C223.721 77.1641 223.689 77.4609 223.689 77.7773ZM232.273 81.1172C231.832 81.1172 231.432 81.043 231.072 80.8945C230.717 80.7422 230.41 80.5293 230.152 80.2559C229.898 79.9824 229.703 79.6582 229.566 79.2832C229.43 78.9082 229.361 78.498 229.361 78.0527V77.8066C229.361 77.291 229.438 76.832 229.59 76.4297C229.742 76.0234 229.949 75.6797 230.211 75.3984C230.473 75.1172 230.77 74.9043 231.102 74.7598C231.434 74.6152 231.777 74.543 232.133 74.543C232.586 74.543 232.977 74.6211 233.305 74.7773C233.637 74.9336 233.908 75.1523 234.119 75.4336C234.33 75.7109 234.486 76.0391 234.588 76.418C234.689 76.793 234.74 77.2031 234.74 77.6484V78.1348H230.006V77.25H233.656V77.168C233.641 76.8867 233.582 76.6133 233.48 76.3477C233.383 76.082 233.227 75.8633 233.012 75.6914C232.797 75.5195 232.504 75.4336 232.133 75.4336C231.887 75.4336 231.66 75.4863 231.453 75.5918C231.246 75.6934 231.068 75.8457 230.92 76.0488C230.771 76.252 230.656 76.5 230.574 76.793C230.492 77.0859 230.451 77.4238 230.451 77.8066V78.0527C230.451 78.3535 230.492 78.6367 230.574 78.9023C230.66 79.1641 230.783 79.3945 230.943 79.5938C231.107 79.793 231.305 79.9492 231.535 80.0625C231.77 80.1758 232.035 80.2324 232.332 80.2324C232.715 80.2324 233.039 80.1543 233.305 79.998C233.57 79.8418 233.803 79.6328 234.002 79.3711L234.658 79.8926C234.521 80.0996 234.348 80.2969 234.137 80.4844C233.926 80.6719 233.666 80.8242 233.357 80.9414C233.053 81.0586 232.691 81.1172 232.273 81.1172ZM237.09 75.6562V81H236.006V74.6602H237.061L237.09 75.6562ZM239.07 74.625L239.064 75.6328C238.975 75.6133 238.889 75.6016 238.807 75.5977C238.729 75.5898 238.639 75.5859 238.537 75.5859C238.287 75.5859 238.066 75.625 237.875 75.7031C237.684 75.7812 237.521 75.8906 237.389 76.0312C237.256 76.1719 237.15 76.3398 237.072 76.5352C236.998 76.7266 236.949 76.9375 236.926 77.168L236.621 77.3438C236.621 76.9609 236.658 76.6016 236.732 76.2656C236.811 75.9297 236.93 75.6328 237.09 75.375C237.25 75.1133 237.453 74.9102 237.699 74.7656C237.949 74.6172 238.246 74.543 238.59 74.543C238.668 74.543 238.758 74.5527 238.859 74.5723C238.961 74.5879 239.031 74.6055 239.07 74.625ZM241.25 74.6602V81H240.16V74.6602H241.25ZM240.078 72.9785C240.078 72.8027 240.131 72.6543 240.236 72.5332C240.346 72.4121 240.506 72.3516 240.717 72.3516C240.924 72.3516 241.082 72.4121 241.191 72.5332C241.305 72.6543 241.361 72.8027 241.361 72.9785C241.361 73.1465 241.305 73.291 241.191 73.4121C241.082 73.5293 240.924 73.5879 240.717 73.5879C240.506 73.5879 240.346 73.5293 240.236 73.4121C240.131 73.291 240.078 73.1465 240.078 72.9785ZM248.504 80.2266C248.762 80.2266 249 80.1738 249.219 80.0684C249.438 79.9629 249.617 79.8184 249.758 79.6348C249.898 79.4473 249.979 79.2344 249.998 78.9961H251.029C251.01 79.3711 250.883 79.7207 250.648 80.0449C250.418 80.3652 250.115 80.625 249.74 80.8242C249.365 81.0195 248.953 81.1172 248.504 81.1172C248.027 81.1172 247.611 81.0332 247.256 80.8652C246.904 80.6973 246.611 80.4668 246.377 80.1738C246.146 79.8809 245.973 79.5449 245.855 79.166C245.742 78.7832 245.686 78.3789 245.686 77.9531V77.707C245.686 77.2812 245.742 76.8789 245.855 76.5C245.973 76.1172 246.146 75.7793 246.377 75.4863C246.611 75.1934 246.904 74.9629 247.256 74.7949C247.611 74.627 248.027 74.543 248.504 74.543C249 74.543 249.434 74.6445 249.805 74.8477C250.176 75.0469 250.467 75.3203 250.678 75.668C250.893 76.0117 251.01 76.4023 251.029 76.8398H249.998C249.979 76.5781 249.904 76.3418 249.775 76.1309C249.65 75.9199 249.479 75.752 249.26 75.627C249.045 75.498 248.793 75.4336 248.504 75.4336C248.172 75.4336 247.893 75.5 247.666 75.6328C247.443 75.7617 247.266 75.9375 247.133 76.1602C247.004 76.3789 246.91 76.623 246.852 76.8926C246.797 77.1582 246.77 77.4297 246.77 77.707V77.9531C246.77 78.2305 246.797 78.5039 246.852 78.7734C246.906 79.043 246.998 79.2871 247.127 79.5059C247.26 79.7246 247.438 79.9004 247.66 80.0332C247.887 80.1621 248.168 80.2266 248.504 80.2266ZM255.986 79.916V76.6523C255.986 76.4023 255.936 76.1855 255.834 76.002C255.736 75.8145 255.588 75.6699 255.389 75.5684C255.189 75.4668 254.943 75.416 254.65 75.416C254.377 75.416 254.137 75.4629 253.93 75.5566C253.727 75.6504 253.566 75.7734 253.449 75.9258C253.336 76.0781 253.279 76.2422 253.279 76.418H252.195C252.195 76.1914 252.254 75.9668 252.371 75.7441C252.488 75.5215 252.656 75.3203 252.875 75.1406C253.098 74.957 253.363 74.8125 253.672 74.707C253.984 74.5977 254.332 74.543 254.715 74.543C255.176 74.543 255.582 74.6211 255.934 74.7773C256.289 74.9336 256.566 75.1699 256.766 75.4863C256.969 75.7988 257.07 76.1914 257.07 76.6641V79.6172C257.07 79.8281 257.088 80.0527 257.123 80.291C257.162 80.5293 257.219 80.7344 257.293 80.9062V81H256.162C256.107 80.875 256.064 80.709 256.033 80.502C256.002 80.291 255.986 80.0957 255.986 79.916ZM256.174 77.1562L256.186 77.918H255.09C254.781 77.918 254.506 77.9434 254.264 77.9941C254.021 78.041 253.818 78.1133 253.654 78.2109C253.49 78.3086 253.365 78.4316 253.279 78.5801C253.193 78.7246 253.15 78.8945 253.15 79.0898C253.15 79.2891 253.195 79.4707 253.285 79.6348C253.375 79.7988 253.51 79.9297 253.689 80.0273C253.873 80.1211 254.098 80.168 254.363 80.168C254.695 80.168 254.988 80.0977 255.242 79.957C255.496 79.8164 255.697 79.6445 255.846 79.4414C255.998 79.2383 256.08 79.041 256.092 78.8496L256.555 79.3711C256.527 79.5352 256.453 79.7168 256.332 79.916C256.211 80.1152 256.049 80.3066 255.846 80.4902C255.646 80.6699 255.408 80.8203 255.131 80.9414C254.857 81.0586 254.549 81.1172 254.205 81.1172C253.775 81.1172 253.398 81.0332 253.074 80.8652C252.754 80.6973 252.504 80.4727 252.324 80.1914C252.148 79.9062 252.061 79.5879 252.061 79.2363C252.061 78.8965 252.127 78.5977 252.26 78.3398C252.393 78.0781 252.584 77.8613 252.834 77.6895C253.084 77.5137 253.385 77.3809 253.736 77.291C254.088 77.2012 254.48 77.1562 254.914 77.1562H256.174ZM259.859 75.6562V81H258.775V74.6602H259.83L259.859 75.6562ZM261.84 74.625L261.834 75.6328C261.744 75.6133 261.658 75.6016 261.576 75.5977C261.498 75.5898 261.408 75.5859 261.307 75.5859C261.057 75.5859 260.836 75.625 260.645 75.7031C260.453 75.7812 260.291 75.8906 260.158 76.0312C260.025 76.1719 259.92 76.3398 259.842 76.5352C259.768 76.7266 259.719 76.9375 259.695 77.168L259.391 77.3438C259.391 76.9609 259.428 76.6016 259.502 76.2656C259.58 75.9297 259.699 75.6328 259.859 75.375C260.02 75.1133 260.223 74.9102 260.469 74.7656C260.719 74.6172 261.016 74.543 261.359 74.543C261.438 74.543 261.527 74.5527 261.629 74.5723C261.73 74.5879 261.801 74.6055 261.84 74.625ZM264.02 74.6602V81H262.93V74.6602H264.02ZM262.848 72.9785C262.848 72.8027 262.9 72.6543 263.006 72.5332C263.115 72.4121 263.275 72.3516 263.486 72.3516C263.693 72.3516 263.852 72.4121 263.961 72.5332C264.074 72.6543 264.131 72.8027 264.131 72.9785C264.131 73.1465 264.074 73.291 263.961 73.4121C263.852 73.5293 263.693 73.5879 263.486 73.5879C263.275 73.5879 263.115 73.5293 263.006 73.4121C262.9 73.291 262.848 73.1465 262.848 72.9785ZM268.297 80.2266C268.555 80.2266 268.793 80.1738 269.012 80.0684C269.23 79.9629 269.41 79.8184 269.551 79.6348C269.691 79.4473 269.771 79.2344 269.791 78.9961H270.822C270.803 79.3711 270.676 79.7207 270.441 80.0449C270.211 80.3652 269.908 80.625 269.533 80.8242C269.158 81.0195 268.746 81.1172 268.297 81.1172C267.82 81.1172 267.404 81.0332 267.049 80.8652C266.697 80.6973 266.404 80.4668 266.17 80.1738C265.939 79.8809 265.766 79.5449 265.648 79.166C265.535 78.7832 265.479 78.3789 265.479 77.9531V77.707C265.479 77.2812 265.535 76.8789 265.648 76.5C265.766 76.1172 265.939 75.7793 266.17 75.4863C266.404 75.1934 266.697 74.9629 267.049 74.7949C267.404 74.627 267.82 74.543 268.297 74.543C268.793 74.543 269.227 74.6445 269.598 74.8477C269.969 75.0469 270.26 75.3203 270.471 75.668C270.686 76.0117 270.803 76.4023 270.822 76.8398H269.791C269.771 76.5781 269.697 76.3418 269.568 76.1309C269.443 75.9199 269.271 75.752 269.053 75.627C268.838 75.498 268.586 75.4336 268.297 75.4336C267.965 75.4336 267.686 75.5 267.459 75.6328C267.236 75.7617 267.059 75.9375 266.926 76.1602C266.797 76.3789 266.703 76.623 266.645 76.8926C266.59 77.1582 266.562 77.4297 266.562 77.707V77.9531C266.562 78.2305 266.59 78.5039 266.645 78.7734C266.699 79.043 266.791 79.2871 266.92 79.5059C267.053 79.7246 267.23 79.9004 267.453 80.0332C267.68 80.1621 267.961 80.2266 268.297 80.2266ZM275.779 79.916V76.6523C275.779 76.4023 275.729 76.1855 275.627 76.002C275.529 75.8145 275.381 75.6699 275.182 75.5684C274.982 75.4668 274.736 75.416 274.443 75.416C274.17 75.416 273.93 75.4629 273.723 75.5566C273.52 75.6504 273.359 75.7734 273.242 75.9258C273.129 76.0781 273.072 76.2422 273.072 76.418H271.988C271.988 76.1914 272.047 75.9668 272.164 75.7441C272.281 75.5215 272.449 75.3203 272.668 75.1406C272.891 74.957 273.156 74.8125 273.465 74.707C273.777 74.5977 274.125 74.543 274.508 74.543C274.969 74.543 275.375 74.6211 275.727 74.7773C276.082 74.9336 276.359 75.1699 276.559 75.4863C276.762 75.7988 276.863 76.1914 276.863 76.6641V79.6172C276.863 79.8281 276.881 80.0527 276.916 80.291C276.955 80.5293 277.012 80.7344 277.086 80.9062V81H275.955C275.9 80.875 275.857 80.709 275.826 80.502C275.795 80.291 275.779 80.0957 275.779 79.916ZM275.967 77.1562L275.979 77.918H274.883C274.574 77.918 274.299 77.9434 274.057 77.9941C273.814 78.041 273.611 78.1133 273.447 78.2109C273.283 78.3086 273.158 78.4316 273.072 78.5801C272.986 78.7246 272.943 78.8945 272.943 79.0898C272.943 79.2891 272.988 79.4707 273.078 79.6348C273.168 79.7988 273.303 79.9297 273.482 80.0273C273.666 80.1211 273.891 80.168 274.156 80.168C274.488 80.168 274.781 80.0977 275.035 79.957C275.289 79.8164 275.49 79.6445 275.639 79.4414C275.791 79.2383 275.873 79.041 275.885 78.8496L276.348 79.3711C276.32 79.5352 276.246 79.7168 276.125 79.916C276.004 80.1152 275.842 80.3066 275.639 80.4902C275.439 80.6699 275.201 80.8203 274.924 80.9414C274.65 81.0586 274.342 81.1172 273.998 81.1172C273.568 81.1172 273.191 81.0332 272.867 80.8652C272.547 80.6973 272.297 80.4727 272.117 80.1914C271.941 79.9062 271.854 79.5879 271.854 79.2363C271.854 78.8965 271.92 78.5977 272.053 78.3398C272.186 78.0781 272.377 77.8613 272.627 77.6895C272.877 77.5137 273.178 77.3809 273.529 77.291C273.881 77.2012 274.273 77.1562 274.707 77.1562H275.967ZM279.652 75.6562V81H278.568V74.6602H279.623L279.652 75.6562ZM281.633 74.625L281.627 75.6328C281.537 75.6133 281.451 75.6016 281.369 75.5977C281.291 75.5898 281.201 75.5859 281.1 75.5859C280.85 75.5859 280.629 75.625 280.438 75.7031C280.246 75.7812 280.084 75.8906 279.951 76.0312C279.818 76.1719 279.713 76.3398 279.635 76.5352C279.561 76.7266 279.512 76.9375 279.488 77.168L279.184 77.3438C279.184 76.9609 279.221 76.6016 279.295 76.2656C279.373 75.9297 279.492 75.6328 279.652 75.375C279.812 75.1133 280.016 74.9102 280.262 74.7656C280.512 74.6172 280.809 74.543 281.152 74.543C281.23 74.543 281.32 74.5527 281.422 74.5723C281.523 74.5879 281.594 74.6055 281.633 74.625ZM285.148 81.1172C284.707 81.1172 284.307 81.043 283.947 80.8945C283.592 80.7422 283.285 80.5293 283.027 80.2559C282.773 79.9824 282.578 79.6582 282.441 79.2832C282.305 78.9082 282.236 78.498 282.236 78.0527V77.8066C282.236 77.291 282.312 76.832 282.465 76.4297C282.617 76.0234 282.824 75.6797 283.086 75.3984C283.348 75.1172 283.645 74.9043 283.977 74.7598C284.309 74.6152 284.652 74.543 285.008 74.543C285.461 74.543 285.852 74.6211 286.18 74.7773C286.512 74.9336 286.783 75.1523 286.994 75.4336C287.205 75.7109 287.361 76.0391 287.463 76.418C287.564 76.793 287.615 77.2031 287.615 77.6484V78.1348H282.881V77.25H286.531V77.168C286.516 76.8867 286.457 76.6133 286.355 76.3477C286.258 76.082 286.102 75.8633 285.887 75.6914C285.672 75.5195 285.379 75.4336 285.008 75.4336C284.762 75.4336 284.535 75.4863 284.328 75.5918C284.121 75.6934 283.943 75.8457 283.795 76.0488C283.646 76.252 283.531 76.5 283.449 76.793C283.367 77.0859 283.326 77.4238 283.326 77.8066V78.0527C283.326 78.3535 283.367 78.6367 283.449 78.9023C283.535 79.1641 283.658 79.3945 283.818 79.5938C283.982 79.793 284.18 79.9492 284.41 80.0625C284.645 80.1758 284.91 80.2324 285.207 80.2324C285.59 80.2324 285.914 80.1543 286.18 79.998C286.445 79.8418 286.678 79.6328 286.877 79.3711L287.533 79.8926C287.396 80.0996 287.223 80.2969 287.012 80.4844C286.801 80.6719 286.541 80.8242 286.232 80.9414C285.928 81.0586 285.566 81.1172 285.148 81.1172ZM288.898 80.4258C288.898 80.2422 288.955 80.0879 289.068 79.9629C289.186 79.834 289.354 79.7695 289.572 79.7695C289.791 79.7695 289.957 79.834 290.07 79.9629C290.188 80.0879 290.246 80.2422 290.246 80.4258C290.246 80.6055 290.188 80.7578 290.07 80.8828C289.957 81.0078 289.791 81.0703 289.572 81.0703C289.354 81.0703 289.186 81.0078 289.068 80.8828C288.955 80.7578 288.898 80.6055 288.898 80.4258Z" fill="#3C3C43" fill-opacity="0.6"/>
<defs>
<clipPath id="clip0_566_515">
<rect width="60" height="60" fill="white" transform="translate(116)"/>
</clipPath>
</defs>
</svg>
