<svg width="18" height="18" viewBox="0 0 18 18" fill="none" xmlns="http://www.w3.org/2000/svg">
<path d="M7.66667 1C3.99266 1 1 3.99266 1 7.66667C1 11.3407 3.99266 14.3333 7.66667 14.3333C9.26434 14.3333 10.7316 13.766 11.8815 12.8242L15.862 16.8047C15.9234 16.8687 15.997 16.9198 16.0784 16.9549C16.1598 16.9901 16.2474 17.0087 16.3361 17.0096C16.4248 17.0105 16.5128 16.9937 16.5949 16.9602C16.6771 16.9267 16.7517 16.8771 16.8144 16.8144C16.8771 16.7517 16.9267 16.6771 16.9602 16.5949C16.9937 16.5128 17.0105 16.4248 17.0096 16.3361C17.0087 16.2474 16.9901 16.1598 16.9549 16.0784C16.9198 15.997 16.8687 15.9234 16.8047 15.862L12.8242 11.8815C13.766 10.7316 14.3333 9.26434 14.3333 7.66667C14.3333 3.99266 11.3407 1 7.66667 1ZM7.66667 2.33333C10.6201 2.33333 13 4.71325 13 7.66667C13 10.6201 10.6201 13 7.66667 13C4.71325 13 2.33333 10.6201 2.33333 7.66667C2.33333 4.71325 4.71325 2.33333 7.66667 2.33333Z" fill="black" stroke="black"/>
</svg>
