<svg width="18" height="20" viewBox="0 0 18 20" fill="none" xmlns="http://www.w3.org/2000/svg">
<path d="M8.20019 0.0800352C7.27219 0.160035 6.23219 0.680037 5.47219 1.44804C4.86419 2.06004 4.43219 2.80404 4.21219 3.62804C4.11219 3.98804 4.10419 4.08404 4.10419 4.80004C4.10019 5.48804 4.11219 5.62004 4.19219 5.92004C4.37619 6.60404 4.62419 7.12804 5.00019 7.64004C6.05619 9.06004 7.72419 9.77204 9.46819 9.54404C10.6162 9.39204 11.5162 8.94004 12.3202 8.09604C13.1962 7.18404 13.6082 6.14404 13.6122 4.84004C13.6162 4.22404 13.5602 3.85604 13.3962 3.34004C13.1602 2.59604 12.8282 2.06404 12.2202 1.46004C11.5602 0.796036 10.8562 0.380035 10.0522 0.176036C9.60419 0.0640354 8.84019 0.0240355 8.20019 0.0800352Z" fill="black"/>
<path d="M4.46375 9.71996C3.48775 9.87196 2.66775 10.344 2.10375 11.08C1.49575 11.864 1.02375 13.136 0.795751 14.58C0.687751 15.276 0.643751 16.704 0.719751 17.204C0.919751 18.596 1.95575 19.636 3.41975 19.924C3.76375 19.992 13.4757 20.024 14.1198 19.96C14.9718 19.872 15.5717 19.652 16.0957 19.232C16.6158 18.812 16.9518 18.308 17.1398 17.652C17.4438 16.608 17.2677 14.412 16.7598 12.88C16.2838 11.44 15.6198 10.568 14.6117 10.064C14.2437 9.87996 13.8517 9.77196 13.3397 9.71996C12.7277 9.65196 12.6757 9.67196 11.7318 10.288C11.0837 10.708 10.9438 10.78 10.4118 10.964C9.84775 11.16 9.55175 11.212 8.95975 11.208C8.51575 11.208 8.35175 11.188 8.03575 11.108C7.35175 10.928 6.90375 10.728 6.21975 10.284C5.87175 10.056 5.50375 9.83196 5.40375 9.78796C5.19175 9.69596 4.80775 9.66796 4.46375 9.71996Z" fill="black"/>
</svg>
